{
    "asset" : {
        "generator" : "Khronos glTF Blender I/O v1.1.46",
        "version" : "2.0"
    },
    "scene" : 0,
    "scenes" : [
        {
            "name" : "Scene",
            "nodes" : [ 0, 1, 2, 3 ]
        }
    ],
    "nodes" : [
        {
            "name" : "Light",
            "rotation" : [ 0.16907575726509094, 0.7558803558349609, -0.27217137813568115, 0.570947527885437 ],
            "translation" : [ 4.076245307922363, 5.903861999511719, -1.0054539442062378 ]
        },
        {
            "name" : "Camera",
            "rotation" : [ 0.483536034822464, 0.33687159419059753, -0.20870360732078552, 0.7804827094078064 ],
            "translation" : [ 7.358891487121582, 4.958309173583984, 6.925790786743164 ]
        },
        {
            "mesh" : 0,
            "name" : "jvVqi4FaB6jPfbbguVUCUF93",
            "rotation" : [ 0.5, 0.5000000596046448, -0.5, 0.4999999403953552 ]
        },
        {
            "name" : "Sun",
            "rotation" : [ 0.5165426731109619, -0.4828909933567047, -0.4828910529613495, 0.5165426135063171 ],
            "translation" : [ 0.8463301062583923, 0.11067473888397217, 0
            ]
        }
    ],
    "materials" : [
        {
            "alphaMode" : "BLEND",
            "doubleSided" : true,
            "emissiveFactor" : [ 0, 0, 0 ],
            "name" : "jvVqi4FaB6jPfbbguVUCUF93",
            "pbrMetallicRoughness" : {
                "baseColorTexture" : {
                    "index" : 0,
                    "texCoord" : 0
                },
                "metallicFactor" : 0,
                "roughnessFactor" : 0.5
            }
        }
    ],
    "meshes" : [
        {
            "name" : "jvVqi4FaB6jPfbbguVUCUF93",
            "primitives" : [
                {
                    "attributes" : {
                        "POSITION" : 0,
                        "NORMAL" : 1,
                        "TEXCOORD_0" : 2
                    },
                    "indices" : 3,
                    "material" : 0
                }
            ]
        }
    ],
    "textures" : [ { "source" : 0 } ],
    "images" : [
        {
            "mimeType" : "image/png",
            "name" : "Image_0",
            "uri" : "Image_0.png"
        }
    ],
    "accessors" : [
        {
            "bufferView" : 0,
            "componentType" : 5126,
            "count" : 8416,
            "max" : [ 0.3183099329471588, -2.9802322387695312e-08, 0.3183099031448364 ],
            "min" : [ -0.3183099031448364, -0.6366198062896729, -0.318310022354126 ],
            "type" : "VEC3"
        },
        {
            "bufferView" : 1,
            "componentType" : 5126,
            "count" : 8416,
            "type" : "VEC3"
        },
        {
            "bufferView" : 2,
            "componentType" : 5126,
            "count" : 8416,
            "type" : "VEC2"
        },
        {
            "bufferView" : 3,
            "componentType" : 5123,
            "count" : 48384,
            "type" : "SCALAR"
        }
    ],
    "bufferViews" : [
        {
            "buffer" : 0,
            "byteLength" : 100992,
            "byteOffset" : 0
        },
        {
            "buffer" : 0,
            "byteLength" : 100992,
            "byteOffset" : 100992
        },
        {
            "buffer" : 0,
            "byteLength" : 67328,
            "byteOffset" : 201984
        },
        {
            "buffer" : 0,
            "byteLength" : 96768,
            "byteOffset" : 269312
        }
    ],
    "buffers" : [
        {
            "byteLength" : 366080,
            "uri" : "cgtrade_2407021_zemlia.bin"
        }
    ]
}
